<svg xmlns="http://www.w3.org/2000/svg" width="28.356" height="33" viewBox="0 0 28.356 33">
    <path d="M28.357 24.212a23.7 23.7 0 0 1-2.141 4c-1.393 2.119-3.357 4.764-5.784 4.781-2.161.02-2.718-1.41-5.652-1.384S11.237 33.022 9.074 33c-2.43-.022-4.288-2.4-5.68-4.52-3.9-5.932-4.307-12.888-1.9-16.587a8.62 8.62 0 0 1 6.927-4.164c2.578 0 4.2 1.415 6.328 1.415 2.068 0 3.326-1.418 6.308-1.418a8.419 8.419 0 0 1 6.343 3.346 7.256 7.256 0 0 0 .957 13.14zM18.792 5.358A7.229 7.229 0 0 0 20.4 0a7.822 7.822 0 0 0-5.044 2.713 6.724 6.724 0 0 0-1.651 5.226 6.577 6.577 0 0 0 5.087-2.581z"/>
</svg>
