<svg xmlns="http://www.w3.org/2000/svg" width="30" height="30" viewBox="0 0 30 30">
    <path data-name="Path 13525" d="M33.708 16.062H32.5V16H19v6h8.477a9.007 9.007 0 1 1-2.507-9.721l4.243-4.243A14.985 14.985 0 1 0 34 19a15.1 15.1 0 0 0-.292-2.938z" style="fill:#fbc02d" transform="translate(-4 -4)"/>
    <path data-name="Path 13526" d="m6.306 12.018 4.928 3.614a8.982 8.982 0 0 1 14.313-3.353l4.243-4.243a14.971 14.971 0 0 0-23.484 3.982z" transform="translate(-4.577 -4)" style="fill:#e53935"/>
    <path data-name="Path 13527" d="M19.549 40.014a14.93 14.93 0 0 0 10.057-3.894l-4.643-3.928a8.977 8.977 0 0 1-13.876-4.137L6.2 31.823a14.988 14.988 0 0 0 13.349 8.191z" transform="translate(-4.549 -10.014)" style="fill:#4caf50"/>
    <path data-name="Path 13528" d="M38.708 20.062 38.7 20H24v6h8.477a9.03 9.03 0 0 1-3.065 4.178l4.642 3.928A14.51 14.51 0 0 0 39 23a15.1 15.1 0 0 0-.292-2.938z" transform="translate(-9 -8)" style="fill:#1565c0"/>
</svg>
